<svg width="40" height="40" viewBox="0 0 40 40" fill="none" xmlns="http://www.w3.org/2000/svg">
<rect width="40" height="40" fill="#EFD063"/>
<path d="M31.8082 21.8527L31.1024 22.9274C29.3045 24.5749 27.4488 25.1694 24.8175 25.1694C24.575 25.1694 24.0178 25.1862 23.7795 25.1694C21.9419 25.04 20.2757 24.2908 18.8401 23.3088C18.7113 23.221 18.618 23.1169 18.4941 23.0236L18.2444 22.7932C17.7762 22.4616 17.5277 22.227 17.0722 21.9478C16.6817 21.7071 16.1492 21.3707 15.7653 21.1788C14.9909 20.7913 14.6094 20.6775 13.8434 20.5446C13.5684 20.4964 13.2928 20.4952 13.0166 20.4868C12.4998 20.4712 12.3301 20.4531 11.9209 20.5061L11.7669 20.5253C11.7416 20.5283 11.6044 20.5554 11.5798 20.559C11.5605 20.5614 11.1357 20.686 11.1182 20.6938C10.1429 21.1072 10.1717 21.1409 9.3883 21.7751C9.19094 21.9351 8.87865 22.2029 8.78298 22.4418C8.64879 22.7745 8.56395 23.1325 8.53748 23.5062C8.69151 24.0183 8.88045 24.5159 9.09948 24.9967C9.36363 25.5761 9.67231 26.1309 10.0225 26.6562C10.5009 27.3752 11.0545 28.0395 11.673 28.6376C12.3163 29.2598 13.0287 29.8104 13.7983 30.2761C15.6034 31.37 17.7209 32 19.9863 32C25.9878 31.9994 30.9508 27.6159 31.8082 21.8527Z" fill="#D9D9D9"/>
<path d="M31.6241 22.0215C29.8262 23.669 27.4302 24.6745 24.7989 24.6745C24.5564 24.6745 24.3157 24.6661 24.0774 24.6486C22.2398 24.5192 20.5375 23.8983 19.1018 22.9163C18.973 22.8284 18.8467 22.7376 18.7227 22.6443L18.7221 22.6437C18.254 22.3121 17.7931 22.0029 17.3376 21.7231C16.9471 21.4824 16.5602 21.2639 16.1769 21.072C15.4025 20.6845 14.6383 20.4047 13.8723 20.2711C13.5973 20.223 13.3217 20.1941 13.0455 20.1857C12.5287 20.17 12.0822 20.1959 11.673 20.2489H11.6718C11.6465 20.2519 11.6213 20.2555 11.5966 20.2591C11.5774 20.2615 11.5581 20.2645 11.5394 20.2675C10.5556 20.4234 9.65848 20.992 9.12055 21.7808C8.97734 21.9908 8.58382 22.5053 8.53809 23.5053C8.76012 22.2568 9.08625 22.1557 9.27579 22.0847C9.57003 21.9746 9.89375 22.0149 10.194 22.1719C10.2091 22.1798 10.2229 22.1876 10.2379 22.196C11.2976 22.7737 12.282 23.9452 13.0191 24.7942L13.0233 24.7996C13.0738 24.8574 13.1232 24.9134 13.1701 24.9681L13.1875 24.9874C13.8615 25.7281 15.364 27.1259 15.8712 27.5507C17.9014 29.2529 19.2805 29.9792 20.8757 30.5075C21.3312 30.6585 21.8065 30.7656 22.2963 30.8252C22.3288 30.8288 22.3691 30.833 22.4161 30.8366C22.7524 30.8613 23.4336 30.8637 24.0539 30.6983C24.1267 30.679 24.8073 30.4552 25.2146 30.123C25.2387 30.1038 25.2616 30.0833 25.2838 30.0634C25.3663 29.9864 25.4373 29.8968 25.4926 29.7987L25.4932 29.7975C25.5871 29.6176 25.6388 29.4244 25.6413 29.2222L25.6419 29.206C25.6419 28.6025 25.199 28.0718 24.5299 27.7649C24.5491 27.7655 24.5678 27.7655 24.587 27.7655C28.0981 27.7655 31.035 25.3099 31.7757 22.0233L31.8082 21.8542L31.6241 22.0215ZM17.7973 24.5517C17.5373 25.1811 16.521 25.3592 15.5276 24.9489C14.5342 24.5385 13.9403 23.6955 14.2002 23.0655C14.4602 22.4361 15.4765 22.258 16.4699 22.6684C17.4633 23.0787 18.0578 23.9217 17.7973 24.5517Z" fill="#1B2125"/>
<path d="M11.3148 18.9235C11.3148 18.9235 11.3828 18.9133 11.3985 18.9115C11.4303 18.9073 11.4628 18.9025 11.4953 18.8989L11.5134 18.8965C11.8828 18.8495 12.2511 18.8255 12.638 18.8219C12.6687 18.8219 12.7 18.8213 12.7319 18.8213C12.8408 18.8213 12.9527 18.8231 13.064 18.8261C13.3727 18.8351 13.6886 18.867 14.0039 18.9193C14.4943 16.051 16.992 13.8673 20.0006 13.8673C23.3606 13.8673 26.0845 16.5913 26.0845 19.9513C26.0845 21.192 25.7127 22.3461 25.0749 23.3083C27.1748 23.2378 29.1707 22.4261 30.7244 21.0025L31.9513 19.8761C31.9104 13.3101 26.5761 8 20.0006 8C13.3998 8 8.04871 13.3511 8.04871 19.9519C8.04871 20.2894 8.06315 20.6234 8.09083 20.9537C8.84117 19.8688 10.0145 19.1293 11.3148 18.9235Z" fill="#373B3F"/>
</svg>
